<mxfile host="app.diagrams.net" agent="Mozilla/5.0 (Windows NT 10.0; Win64; x64) AppleWebKit/537.36 (KHTML, like Gecko) Chrome/137.0.0.0 Safari/537.36" version="27.1.4">
  <diagram name="Pagina-1" id="DgbCpB3lsnm1m_4SGFxq">
    <mxGraphModel dx="1226" dy="620" grid="1" gridSize="10" guides="1" tooltips="1" connect="1" arrows="1" fold="1" page="1" pageScale="1" pageWidth="827" pageHeight="1169" math="0" shadow="0">
      <root>
        <mxCell id="0" />
        <mxCell id="1" parent="0" />
        <mxCell id="jgbJSeuZmCzQMlDoHzdy-3" value="" style="edgeStyle=orthogonalEdgeStyle;rounded=0;orthogonalLoop=1;jettySize=auto;html=1;" edge="1" parent="1" source="jgbJSeuZmCzQMlDoHzdy-1" target="jgbJSeuZmCzQMlDoHzdy-2">
          <mxGeometry relative="1" as="geometry" />
        </mxCell>
        <mxCell id="jgbJSeuZmCzQMlDoHzdy-1" value="Gebruiker geeft commando" style="rounded=0;whiteSpace=wrap;html=1;" vertex="1" parent="1">
          <mxGeometry x="370" y="80" width="120" height="60" as="geometry" />
        </mxCell>
        <mxCell id="jgbJSeuZmCzQMlDoHzdy-8" value="" style="edgeStyle=orthogonalEdgeStyle;rounded=0;orthogonalLoop=1;jettySize=auto;html=1;" edge="1" parent="1" source="jgbJSeuZmCzQMlDoHzdy-2" target="jgbJSeuZmCzQMlDoHzdy-5">
          <mxGeometry relative="1" as="geometry" />
        </mxCell>
        <mxCell id="jgbJSeuZmCzQMlDoHzdy-2" value="Bot reageert op commando vd gebruiker" style="rounded=0;whiteSpace=wrap;html=1;" vertex="1" parent="1">
          <mxGeometry x="370" y="230" width="120" height="60" as="geometry" />
        </mxCell>
        <mxCell id="jgbJSeuZmCzQMlDoHzdy-12" style="edgeStyle=orthogonalEdgeStyle;rounded=0;orthogonalLoop=1;jettySize=auto;html=1;" edge="1" parent="1" source="jgbJSeuZmCzQMlDoHzdy-5" target="jgbJSeuZmCzQMlDoHzdy-10">
          <mxGeometry relative="1" as="geometry" />
        </mxCell>
        <mxCell id="jgbJSeuZmCzQMlDoHzdy-14" value="" style="edgeStyle=orthogonalEdgeStyle;rounded=0;orthogonalLoop=1;jettySize=auto;html=1;" edge="1" parent="1" source="jgbJSeuZmCzQMlDoHzdy-5" target="jgbJSeuZmCzQMlDoHzdy-13">
          <mxGeometry relative="1" as="geometry" />
        </mxCell>
        <mxCell id="jgbJSeuZmCzQMlDoHzdy-5" value="Bot slaat gegevens op van de gebruiker in het &quot;Geheugen&quot;" style="rounded=0;whiteSpace=wrap;html=1;" vertex="1" parent="1">
          <mxGeometry x="370" y="360" width="120" height="60" as="geometry" />
        </mxCell>
        <mxCell id="jgbJSeuZmCzQMlDoHzdy-28" style="edgeStyle=orthogonalEdgeStyle;rounded=0;orthogonalLoop=1;jettySize=auto;html=1;entryX=0.5;entryY=0;entryDx=0;entryDy=0;" edge="1" parent="1" source="jgbJSeuZmCzQMlDoHzdy-10" target="jgbJSeuZmCzQMlDoHzdy-29">
          <mxGeometry relative="1" as="geometry">
            <mxPoint x="140" y="860" as="targetPoint" />
          </mxGeometry>
        </mxCell>
        <mxCell id="jgbJSeuZmCzQMlDoHzdy-10" value="Geheugen wordt aangemaakt, en gegevens worden opgeslagen" style="rounded=0;whiteSpace=wrap;html=1;" vertex="1" parent="1">
          <mxGeometry x="90" y="360" width="120" height="60" as="geometry" />
        </mxCell>
        <mxCell id="jgbJSeuZmCzQMlDoHzdy-20" value="" style="edgeStyle=orthogonalEdgeStyle;rounded=0;orthogonalLoop=1;jettySize=auto;html=1;" edge="1" parent="1" source="jgbJSeuZmCzQMlDoHzdy-13" target="jgbJSeuZmCzQMlDoHzdy-15">
          <mxGeometry relative="1" as="geometry" />
        </mxCell>
        <mxCell id="jgbJSeuZmCzQMlDoHzdy-13" value="Gebruiker stelt volgende commando" style="rounded=0;whiteSpace=wrap;html=1;" vertex="1" parent="1">
          <mxGeometry x="370" y="524" width="120" height="60" as="geometry" />
        </mxCell>
        <mxCell id="jgbJSeuZmCzQMlDoHzdy-23" value="" style="edgeStyle=orthogonalEdgeStyle;rounded=0;orthogonalLoop=1;jettySize=auto;html=1;" edge="1" parent="1" source="jgbJSeuZmCzQMlDoHzdy-15" target="jgbJSeuZmCzQMlDoHzdy-21">
          <mxGeometry relative="1" as="geometry" />
        </mxCell>
        <mxCell id="jgbJSeuZmCzQMlDoHzdy-15" value="Commando wordt uitgelezen" style="rounded=0;whiteSpace=wrap;html=1;" vertex="1" parent="1">
          <mxGeometry x="370" y="650" width="120" height="60" as="geometry" />
        </mxCell>
        <mxCell id="jgbJSeuZmCzQMlDoHzdy-26" style="edgeStyle=orthogonalEdgeStyle;rounded=0;orthogonalLoop=1;jettySize=auto;html=1;entryX=1;entryY=0.75;entryDx=0;entryDy=0;" edge="1" parent="1" source="jgbJSeuZmCzQMlDoHzdy-21" target="jgbJSeuZmCzQMlDoHzdy-24">
          <mxGeometry relative="1" as="geometry" />
        </mxCell>
        <mxCell id="jgbJSeuZmCzQMlDoHzdy-27" style="edgeStyle=orthogonalEdgeStyle;rounded=0;orthogonalLoop=1;jettySize=auto;html=1;entryX=0;entryY=0.75;entryDx=0;entryDy=0;" edge="1" parent="1" source="jgbJSeuZmCzQMlDoHzdy-21" target="jgbJSeuZmCzQMlDoHzdy-25">
          <mxGeometry relative="1" as="geometry" />
        </mxCell>
        <mxCell id="jgbJSeuZmCzQMlDoHzdy-21" value="Moet er iets uit het geheugen?" style="rounded=0;whiteSpace=wrap;html=1;" vertex="1" parent="1">
          <mxGeometry x="370" y="790" width="120" height="60" as="geometry" />
        </mxCell>
        <mxCell id="jgbJSeuZmCzQMlDoHzdy-30" value="" style="edgeStyle=orthogonalEdgeStyle;rounded=0;orthogonalLoop=1;jettySize=auto;html=1;" edge="1" parent="1" source="jgbJSeuZmCzQMlDoHzdy-24" target="jgbJSeuZmCzQMlDoHzdy-29">
          <mxGeometry relative="1" as="geometry" />
        </mxCell>
        <mxCell id="jgbJSeuZmCzQMlDoHzdy-24" value="Ja?" style="rounded=0;whiteSpace=wrap;html=1;" vertex="1" parent="1">
          <mxGeometry x="250" y="870" width="120" height="60" as="geometry" />
        </mxCell>
        <mxCell id="jgbJSeuZmCzQMlDoHzdy-25" value="Nee" style="rounded=0;whiteSpace=wrap;html=1;" vertex="1" parent="1">
          <mxGeometry x="480" y="870" width="120" height="60" as="geometry" />
        </mxCell>
        <mxCell id="jgbJSeuZmCzQMlDoHzdy-29" value="Gegevens worden uit geheugen gehaald" style="rounded=0;whiteSpace=wrap;html=1;" vertex="1" parent="1">
          <mxGeometry x="90" y="870" width="120" height="60" as="geometry" />
        </mxCell>
      </root>
    </mxGraphModel>
  </diagram>
</mxfile>
